<?xml version="1.0" encoding="UTF-8" standalone="no"?>
<!-- Created with Inkscape (http://www.inkscape.org/) -->

<svg
   version="1.1"
   id="svg1"
   width="2790.1331"
   height="726.25848"
   viewBox="0 0 2790.1331 726.25849"
   xmlns="http://www.w3.org/2000/svg"
   xmlns:svg="http://www.w3.org/2000/svg">
  <defs
     id="defs1" />
  <g
     id="g1"
     transform="translate(-24.448373,-393.04562)">
    <g
       id="g6"
       transform="translate(24.581498,393.30396)">
      <path
         style="fill:#03c8fa"
         d="m 2156,724.43992 -6.5,-1.40107 -7.4262,-3.66113 -7.4262,-3.66112 -6.8238,-6.82382 L 2121,702.06897 V 699.53448 697 l 2,-2 2,-2 h 3.4553 3.4553 l 5.3773,5.25 5.3774,5.25 5.004,2.7235 5.004,2.72349 6.4133,1.51173 6.4134,1.51172 5.0399,0.0148 5.0399,0.0148 5.9601,-1.52464 5.9601,-1.52465 5.4639,-3.72535 5.464,-3.72536 3.7932,-5 3.7931,-5 2.1234,-5.5 2.1233,-5.5 0.4841,-10.5 0.4841,-10.5 -2.957,4 c -6.7611,9.14618 -15.7274,15.45748 -25.7721,18.14065 l -5,1.33561 -9.0399,0.0119 -9.0399,0.0119 -5.8786,-1.53119 -5.8787,-1.53119 -5.6351,-3.00349 -5.6351,-3.00349 -4.7319,-4.53421 c -2.6025,-2.49381 -6.2779,-6.86571 -8.1676,-9.71532 l -3.4357,-5.18111 -2.1517,-6 -2.1518,-6 -0.4926,-11.53477 -0.4926,-11.53477 1.1595,-5.58494 1.1594,-5.58494 3.2989,-6.88029 3.2989,-6.88029 5.2341,-5.72426 5.234,-5.72426 5.6732,-3.4378 c 3.1203,-1.89078 8.5982,-4.45683 12.1732,-5.70232 l 6.5,-2.26454 12,-0.0128 12,-0.0128 7.2637,2.59399 7.2638,2.59399 4.974,3.19181 4.974,3.19181 5.071,5.54845 5.0709,5.54845 2.9685,5.8805 c 1.6327,3.23427 3.7437,8.6816 4.6913,12.10517 l 1.7228,6.22467 -0.013,30.5 -0.013,30.5 -2.8014,7.96187 -2.8014,7.96187 -4.5652,6.86705 -4.5652,6.86706 -5.0118,3.96156 c -2.7565,2.17887 -6.8996,5.06791 -9.2069,6.42009 l -4.1951,2.45852 -7.8238,2.00099 -7.8238,2.00099 -7.5901,-0.0795 -7.59,-0.0795 z m 32.4872,-58.88821 5.9873,-2.93095 4.8196,-4.81963 4.8196,-4.81963 3.1932,-6.74075 L 2210.5,639.5 v -12 -12 l -3.1645,-6.67961 -3.1645,-6.67961 -4.0834,-4.42995 -4.0834,-4.42995 -5.8169,-3.10038 -5.817,-3.10039 -7.0557,-1.16524 -7.0558,-1.16524 -6.7681,1.1786 -6.768,1.1786 -4.9516,2.50915 -4.9515,2.50914 -4.3655,4.02394 -4.3654,4.02393 -2.4474,4.17618 c -1.3461,2.2969 -3.2159,6.81966 -4.1552,10.05057 l -1.7077,5.87438 0.3922,9.61294 0.3921,9.61294 3.0713,6.54737 3.0713,6.54736 3.1069,3.53864 c 4.2082,4.79283 10.2291,8.83107 16.4876,11.05827 l 5.2002,1.85057 10.5,-0.27978 10.5,-0.27977 z M 1533,681.57143 c -2.475,-0.68735 -7.1763,-2.55962 -10.4474,-4.16058 l -5.9474,-2.91085 -6.5564,-6.5 -6.5564,-6.5 -3.162,-6 -3.162,-6 -1.5842,-6.14434 L 1494,637.21131 V 627.5 617.78869 l 1.5842,-6.14435 1.5842,-6.14434 3.1507,-5.92938 3.1508,-5.92937 6.2669,-6.26691 6.2669,-6.26691 7.2481,-3.56763 7.2482,-3.56763 7.5,-1.58387 7.5,-1.58387 7.5,0.55003 7.5,0.55003 6.5721,2.03299 6.5722,2.033 5.9916,3.87261 c 7.233,4.67488 12.5101,9.90376 16.9844,16.82908 l 3.3416,5.17217 2.7278,7.82783 2.7279,7.82783 0.041,30.14083 0.041,30.14082 -1.905,2.10918 L 1601.69,682 h -3.845 -3.845 l -2,-2 -2,-2 v -7.68 -7.68 l -3.5166,4.10833 -3.5165,4.10832 -6.0835,4.0624 -6.0835,4.0624 -6.5053,2.00928 -6.5053,2.00927 -10.1446,-0.0894 -10.1447,-0.0894 z m 34.2375,-16.36761 6.5799,-3.23923 5.5065,-5.94771 5.5065,-5.94772 2.2306,-5.78458 2.2305,-5.78458 0.4732,-8.67912 0.4732,-8.67912 -2.0831,-6.85798 -2.083,-6.85797 -3.9724,-5.54742 -3.9725,-5.54741 -5.3134,-3.63803 c -2.9224,-2.00092 -7.3385,-4.38379 -9.8135,-5.29526 l -4.5,-1.65722 -8.5,-0.0895 -8.5,-0.0895 -5,1.74469 -5,1.74468 -5.4933,3.81854 -5.4933,3.81853 -4.2405,6.19659 -4.2406,6.19659 -1.6269,5.59655 -1.627,5.59656 0.4439,9.61294 0.4439,9.61294 2.5984,5.71967 2.5985,5.71967 4.7841,5.11452 4.784,5.11453 4.3204,2.53195 c 2.3763,1.39257 6.2168,3.14944 8.5344,3.90416 l 4.214,1.37222 9.5789,-0.26683 9.5788,-0.26683 z m 187.1104,16.37637 c -2.8337,-0.68734 -7.6711,-2.48212 -10.7498,-3.98838 l -5.5976,-2.73867 -5.6759,-5.17657 -5.676,-5.17657 -3.8588,-5.95847 -3.8589,-5.95848 -2.1782,-7.04152 -2.1783,-7.04153 -0.025,-10.5 -0.025,-10.5 1.3548,-5.5 c 0.7451,-3.025 2.6828,-8.32906 4.306,-11.78679 l 2.9513,-6.28679 5.9884,-6.40161 5.9884,-6.40162 4.4913,-2.6321 c 2.4703,-1.44766 6.9972,-3.49423 10.0599,-4.54794 l 5.5684,-1.91585 7.6332,-0.60836 7.6331,-0.60836 7.47,1.58678 7.4699,1.58677 5.4927,2.75794 5.4927,2.75793 5.6493,5.51088 5.6494,5.51088 2.7454,5.41787 c 4.0582,8.00838 5.3423,12.20547 6.5799,21.50489 l 1.1151,8.37976 -1.2319,2.33786 c -0.6775,1.28582 -1.727,2.66847 -2.3322,3.07255 l -1.1003,0.73468 -42.3379,0.0153 -42.3379,0.0153 0.6771,4.25 c 1.5304,9.60546 7.5909,19.44514 15.596,25.32142 l 4.8531,3.56253 5.7748,2.03145 5.7748,2.03144 8,-0.0222 8,-0.0222 6.0992,-1.9244 6.0992,-1.9244 4.581,-3.15179 4.581,-3.1518 h 3.0308 3.0309 l 2.0389,2.18856 2.039,2.18856 v 2.35919 2.35919 l -2.5286,2.34339 c -1.3907,1.28886 -5.5532,3.92904 -9.25,5.86707 l -6.7214,3.52367 -6.1443,1.58519 -6.1444,1.58518 -9.3556,-0.0851 -9.3557,-0.085 z m 48.159,-65.83019 -0.6689,-4.25 -2.8202,-6.15125 -2.8203,-6.15125 -4.2008,-4.20079 -4.2008,-4.20079 -5.6479,-2.63764 -5.648,-2.63765 -9.5,0.009 -9.5,0.009 -6.1104,2.80458 -6.1104,2.80458 -4.5749,4.67609 -4.5749,4.67609 -2.513,5.04227 c -1.3821,2.77325 -2.9334,6.91357 -3.4473,9.20071 l -0.9344,4.15843 0.5493,0.5493 c 0.3022,0.30211 16.9389,0.54929 36.9706,0.54929 h 36.4212 z m 215.6054,65.66945 c -2.9632,-0.79691 -8.1382,-2.89278 -11.5,-4.65749 l -6.1123,-3.20856 -6.5887,-6.5267 -6.5886,-6.5267 -3.2145,-6.75428 -3.2144,-6.75428 -1.4296,-6.74572 -1.4295,-6.74572 v -6 -6 l 1.4644,-6.91244 1.4644,-6.91244 2.9697,-6.34609 2.9697,-6.34608 5.2986,-5.64583 5.2985,-5.64582 5.9279,-3.86041 5.9278,-3.86041 6.4373,-1.98825 6.4372,-1.98825 8.1349,-0.59446 8.1349,-0.59445 7.5,1.59007 7.5,1.59008 6.3497,3.11914 6.3497,3.11915 6.75,6.36752 6.7499,6.36752 3.0281,5.77073 c 1.6655,3.17389 3.8691,8.24572 4.8969,11.27072 l 1.8688,5.5 6e-4,12 7e-4,12 -2.3089,6.69044 -2.3089,6.69045 -3.7582,5.80955 -3.7581,5.80956 -5.0652,4.5494 -5.0652,4.5494 -5.9464,3.16941 -5.9464,3.16941 -5.8787,1.53119 -5.8786,1.53119 -10.0399,-0.0658 -10.0399,-0.0658 z m 34.0506,-16.17888 6.5471,-3.22313 4.7149,-5.04065 4.715,-5.04066 2.5348,-5.53671 2.5348,-5.5367 1.0585,-6.83844 1.0584,-6.83844 -1.1053,-6.67072 -1.1054,-6.67071 -2.8897,-6.17507 -2.8896,-6.17507 -4.6788,-4.67876 -4.6787,-4.67876 -5.3363,-2.61078 -5.3362,-2.61078 -6.7273,-1.04734 -6.7273,-1.04735 -6.6164,1.15219 -6.6163,1.15219 -5.3252,2.60749 -5.3252,2.60749 -5.0385,5.32742 -5.0384,5.32743 -2.5152,5.49387 -2.5152,5.49386 -1.0939,6.6017 -1.0939,6.6017 1.0584,6.83844 1.0585,6.83844 2.4559,5.36427 2.4558,5.36427 3.304,3.76305 c 4.3186,4.91861 10.8908,9.383 17.3226,11.76697 l 5.1712,1.91669 10.0579,-0.28713 10.0579,-0.28714 z M 2289.5,681.13341 c -3.3,-0.94826 -8.4371,-3.05334 -11.4158,-4.67795 l -5.4159,-2.95383 -5.5841,-5.50192 -5.5842,-5.50192 -3.8007,-7.24162 -3.8007,-7.24163 -1.4319,-6.75727 -1.432,-6.75727 v -7 -7 l 1.4697,-7 1.4697,-7 3.6209,-7.358 3.621,-7.35801 L 2267,586 l 5.784,-5.78399 7.358,-3.60685 7.358,-3.60685 7.8307,-1.193 7.8308,-1.19299 8.1692,1.17834 8.1693,1.17835 7.3136,3.59954 7.3135,3.59953 5.4195,5.50673 5.4194,5.50672 2.9954,6.15723 c 1.6474,3.38648 3.6801,8.83928 4.517,12.11734 l 1.5216,5.9601 v 6.63491 6.63491 l -1.8287,1.65499 -1.8288,1.65499 h -42.3072 -42.3071 l 0.6209,4.53025 0.6209,4.53025 2.7036,5.71975 2.7035,5.71975 5.2932,5.29697 5.2932,5.29697 5.2993,2.42609 5.2993,2.42608 6.4689,0.90587 6.469,0.90586 6.4349,-0.89027 6.4349,-0.89027 5.3676,-2.45735 c 2.9522,-1.35155 6.5296,-3.37144 7.9499,-4.48865 L 2335.2697,659 h 3.2926 3.2925 l 2.0726,2.63486 c 2.6641,3.38684 2.6091,4.57405 -0.376,8.1217 l -2.4486,2.91001 -5.8014,3.06902 c -3.1908,1.68796 -8.8863,4.01298 -12.6567,5.16671 l -6.8554,2.0977 -10.1446,-0.0712 -10.1447,-0.0712 z m 49.6582,-65.09127 c -0.188,-1.90183 -1.2323,-5.83782 -2.3206,-8.74666 l -1.9788,-5.2888 -4.9893,-5.4591 -4.9893,-5.45911 -5.2942,-2.59018 -5.2941,-2.59018 -6.896,-0.57706 -6.8959,-0.57706 -6.5,1.65067 -6.5,1.65068 -5.1779,3.54444 -5.1779,3.54444 -3.6264,5.26535 -3.6263,5.26535 -1.9471,6.25589 -1.947,6.25589 0.568,0.91905 0.568,0.91906 36.1833,-0.26241 L 2339.5,619.5 Z m 293.1897,65.53805 c -2.8337,-0.68734 -7.6711,-2.48212 -10.7498,-3.98838 l -5.5976,-2.73867 -5.6759,-5.17657 -5.676,-5.17657 -3.8588,-5.95847 -3.8589,-5.95848 -2.1534,-7.04152 -2.1535,-7.04153 -0.053,-10.5 -0.053,-10.5 1.3583,-5.5 c 0.747,-3.025 2.6938,-8.34475 4.3262,-11.82166 l 2.9679,-6.32166 6.3763,-6.75924 6.3763,-6.75924 6.2884,-3.17936 6.2884,-3.17936 7,-1.47238 c 8.8328,-1.85788 14.1859,-1.85665 22.9758,0.005 l 6.9758,1.47765 5.4868,2.75498 5.4869,2.75499 5.6551,5.51651 5.6551,5.51652 3.1594,6.25881 3.1595,6.25881 1.5304,5.97382 1.5304,5.97381 0.1924,7.07535 0.1924,7.07534 -1.9411,1.42552 -1.9412,1.42551 h -42.3967 -42.3968 l 0.6771,4.25 c 1.5304,9.60546 7.5909,19.44514 15.596,25.32142 l 4.8531,3.56253 5.7748,2.03145 5.7748,2.03144 8,-0.0222 8,-0.0222 6.0992,-1.9244 6.0992,-1.9244 4.581,-3.15179 4.581,-3.1518 h 3.0308 3.0309 l 2.0389,2.18856 2.039,2.18856 v 2.35919 2.35919 l -2.5286,2.34339 c -1.3907,1.28886 -5.5532,3.92904 -9.25,5.86707 l -6.7214,3.52367 -6.1443,1.58519 -6.1444,1.58518 -9.3556,-0.0851 -9.3557,-0.085 z m 48.159,-65.83019 -0.6689,-4.25 -2.8202,-6.15125 -2.8203,-6.15125 -4.2008,-4.20079 -4.2008,-4.20079 -5.6479,-2.63764 -5.648,-2.63765 -9.5,0.009 -9.5,0.009 -6.1104,2.80458 -6.1104,2.80458 -4.5749,4.67609 -4.5749,4.67609 -2.513,5.04227 c -1.3821,2.77325 -2.9334,6.91357 -3.4473,9.20071 l -0.9344,4.15843 0.5493,0.5493 c 0.3022,0.30211 16.9389,0.54929 36.9706,0.54929 h 36.4212 z M 1417,680 l -2,-2 v -50.54545 -50.54546 l 2.5735,-2.57347 2.5734,-2.57346 3.6733,0.59609 3.6732,0.59608 1.2533,1.71397 1.2533,1.71396 v 5.95393 5.95392 l 5.4915,-5.1936 5.4914,-5.19361 6.7586,-3.19894 6.7585,-3.19893 10,-0.003 10,-0.003 3.2882,1.38715 3.2882,1.38715 0.9618,1.79711 c 0.529,0.98841 0.9618,2.88195 0.9618,4.20786 v 2.41075 l -1.8204,1.64745 -1.8204,1.64744 -11.4296,-0.0554 -11.4296,-0.0554 -5.2059,1.58856 -5.2058,1.58856 -4.2687,3.25585 -4.2687,3.25584 -2.7684,3.96852 -2.7683,3.96852 -1.0071,5.38649 -1.0071,5.38649 v 32.20852 32.20852 l -1.8287,1.65499 -1.8288,1.656 H 1422.6713 1419 Z m 220.5567,-0.22251 -1.5567,-2.2225 v -50.70492 -50.70491 l 2.6349,-2.07258 2.6348,-2.07258 h 2.2303 2.2303 l 2.6348,2.07258 2.6349,2.07258 v 6.00637 6.00636 l 4.5889,-4.58888 c 2.5239,-2.52388 6.4614,-5.68601 8.75,-7.02694 l 4.1611,-2.43807 5.9601,-1.552 5.9601,-1.552 5.5399,0.006 5.5399,0.006 4,1.09028 4,1.09027 2.25,2.07846 2.25,2.07847 V 579.67431 582 l -1.9832,1.98325 -1.9833,1.98324 -11.7667,-0.069 -11.7668,-0.069 -5.9188,2.22077 -5.9188,2.22078 -4.4155,4.07004 -4.4155,4.07004 -2.1657,4.04495 -2.1657,4.04495 -0.5,36.09875 -0.5,36.09875 -1.3724,1.65125 -1.3725,1.65125 h -4.3208 -4.3209 z m 294.014,-0.26247 -5.9293,-2.43751 -5.2494,-5.18418 -5.2494,-5.18418 -2.8213,-6.10457 L 1909.5,654.5 1909.1873,622.25 1908.8746,590 h -7.0031 -7.003 l -2.1842,-1.1497 c -2.8718,-1.51158 -3.6505,-2.79086 -3.669,-6.02772 l -0.015,-2.67742 2.6349,-2.07258 L 1894.27,576 h 7.3652 7.3651 v -17.04545 -17.04546 l 2.4545,-2.45454 2.4546,-2.45455 h 2.4106 2.4106 l 2.6348,2.07258 2.6349,2.07258 V 558.57258 576 h 11.9529 11.953 l 2.571,1.17144 2.5711,1.17144 0.5844,2.32856 0.5844,2.32856 -0.5844,2.32856 -0.5844,2.32856 -2.5711,1.17144 -2.571,1.17144 h -12.0312 -12.0311 l 0.3455,29.75 0.3455,29.75 1.7858,4 c 0.9821,2.2 2.9993,5.29424 4.4826,6.8761 l 2.697,2.8761 4,1.85194 4,1.85194 6.1392,0.022 6.1392,0.022 2.1078,1.75 2.1078,1.75 0.5811,3.01578 0.5812,3.01578 -2.1507,2.73422 -2.1508,2.73422 -8.6774,-0.0237 -8.6774,-0.0237 z m 480.2735,1.0913 c -2.0107,-0.71824 -5.6901,-2.49804 -8.1764,-3.95511 l -4.5206,-2.64923 -3.1077,-3.75099 c -1.7092,-2.06304 -4.3299,-6.22599 -5.8236,-9.25099 l -2.7159,-5.5 -0.3007,-32.75 -0.3006,-32.75 -7.1994,-0.0147 -7.1993,-0.0147 -2.5,-1.25865 -2.5,-1.25864 -0.3029,-4.13285 -0.3029,-4.13284 2.2754,-1.59377 L 2371.445,576 h 7.7775 7.7775 v -17.42742 -17.42742 l 2.6349,-2.07258 2.6348,-2.07258 h 2.4106 2.4106 l 2.4546,2.45455 2.4545,2.45454 V 558.95455 576 h 12.3651 12.3652 l 2.6348,2.07258 2.6349,2.07258 V 583 v 2.85484 l -2.6349,2.07258 L 2426.7303,590 H 2414.3651 2402 v 28.3185 28.3185 l 1.5551,5.2366 1.5551,5.23661 3.7189,3.7189 3.7189,3.71889 4.092,1.226 4.092,1.226 h 5.634 5.634 l 2,2 2,2 v 3.5 3.5 l -2,2 -2,2 -8.25,-0.0439 -8.25,-0.0439 z m 51.8108,-0.43506 -1.655,-1.82874 v -74.63231 -74.6323 l 2.1886,-2.03895 2.1885,-2.03896 h 2.8569 2.8569 l 2.4546,2.45455 2.4545,2.45454 v 28.07785 28.07785 l 5.25,-3.91982 c 6.7575,-5.04534 12.2774,-7.78682 19.4296,-9.64973 l 5.7406,-1.49524 6.5399,0.0148 6.5399,0.0148 6.2692,1.47808 6.2691,1.47808 5.2309,2.63779 c 2.8769,1.45079 6.8929,3.94667 8.9243,5.5464 l 3.6935,2.90862 4.0472,6.0608 4.0473,6.0608 2.1988,6.64994 2.1988,6.64993 0.3904,33.01343 0.3905,33.01343 -2.1526,2.73657 -2.1526,2.73657 h -3.7724 -3.7724 l -1.905,-2.10274 -1.905,-2.10274 -0.5,-33.64726 -0.5,-33.64726 -2.6198,-5.58648 -2.6198,-5.58648 -3.7937,-3.79371 -3.7937,-3.7937 -5.5865,-2.56644 -5.5865,-2.56645 -8.5983,-0.41843 -8.5983,-0.41844 -5.7705,1.67755 c -7.1321,2.07334 -11.9415,5.0487 -16.732,10.35123 l -3.688,4.08218 -1.5565,5.24108 L 2477,612.363 V 645.1815 678 l -2,2 -2,2 h -3.845 -3.845 z m 259.9017,-0.39377 -1.5567,-2.2225 v -50.70492 -50.70491 l 2.6349,-2.07258 2.6348,-2.07258 h 2.2303 2.2303 l 2.6348,2.07258 2.6349,2.07258 v 6.09218 6.09218 l 4.6357,-4.70215 c 2.5497,-2.58618 6.4872,-5.78692 8.75,-7.11276 l 4.1143,-2.41061 5.9601,-1.552 5.9601,-1.552 5.5399,0.006 5.5399,0.006 4,1.09028 4,1.09027 2.25,2.07846 2.25,2.07847 V 579.67431 582 l -1.9832,1.98325 -1.9833,1.98324 -11.7667,-0.069 -11.7668,-0.069 -5.9188,2.22077 -5.9188,2.22078 -4.4155,4.07004 -4.4155,4.07004 -2.1657,4.04495 -2.1657,4.04495 -0.5,36.09875 -0.5,36.09875 -1.3724,1.65125 -1.3725,1.65125 h -4.3208 -4.3209 z"
         id="path7" />
      <path
         style="fill:#010101"
         d="m 173,530.91202 -15.5,-0.69044 -5,-1.46393 c -21.1125,-6.18145 -35.16026,-13.88052 -54,-29.59546 l -10,-8.34138 -10.00804,-10.6604 C 58.593745,458.96514 46.74089,440.72159 36.806875,416 l -5.022945,-12.5 -3.400071,-12 C 26.51382,384.9 23.765878,372.975 22.277321,365 l -2.706467,-14.5 -0.586367,-75 -0.586366,-75 -1.715646,-8 c -0.943605,-4.4 -2.88178,-11.52246 -4.307056,-15.82769 l -2.5914095,-7.82769 -4.9585671,-7.41367 -4.95856719,-7.41368 5.31656239,-6.05886 C 12.98678,139.06556 36.817907,116.95879 50.802607,105.64012 l 12.182304,-9.859888 1.317652,0.505631 1.317652,0.50563 1.697043,5.854257 1.697043,5.85425 0.999898,10.42464 0.999898,10.42464 -1.042897,13.57536 C 69.397606,150.39109 67.61596,166.85 66.011985,179.5 c -1.603975,12.65 -3.629322,30.65 -4.500771,40 l -1.584453,17 -0.59711,29 -0.597109,29 1.15827,16 c 4.554885,62.91983 18.530365,108.62139 44.187918,144.5 l 6.79365,9.5 8.31381,8.56998 8.31381,8.56998 9,6.70675 9,6.70675 11.76697,6.0205 11.76696,6.0205 10.71365,3.50953 10.71365,3.50953 12.51939,1.93265 c 6.88566,1.06295 14.88188,1.93741 17.76938,1.94324 L 226,518 v 0.81479 c 0,1.76927 -16.64874,8.38905 -26.90899,10.6994 -9.62523,2.16735 -9.25756,2.14765 -26.09101,1.39783 z m 758.14607,-0.50338 C 920.37117,528.05058 902,520.73396 902,518.80073 V 518 h 6.50658 6.50658 l 10.12998,-1.5215 c 5.57148,-0.83682 14.23102,-2.67229 19.24342,-4.07882 l 9.11344,-2.55732 14,-6.75506 14,-6.75505 10,-7.54515 10,-7.54516 6.1351,-6.37097 c 21.7381,-22.57404 35.9262,-47.55443 46.4956,-81.86278 l 3.8484,-12.49181 3.0106,-15.00819 c 3.7063,-18.47656 5.5099,-32.09716 7.0857,-53.50819 l 1.2143,-16.5 -0.597,-30 -0.597,-30 -1.5575,-16.5 c -0.8567,-9.075 -2.9003,-27.075 -4.5414,-40 -1.6411,-12.925 -3.3934,-29.35 -3.8939,-36.5 l -0.91,-13 0.9288,-10 0.9288,-10 1.7247,-6.37062 1.7248,-6.370623 1.2134,-0.47231 1.2133,-0.47231 13.7867,11.290153 13.7866,11.29015 17.75,17.49281 c 20.0043,19.71441 18.8648,17.81383 14.3756,23.97877 -6.468,8.8822 -10.3041,18.72371 -13.2019,33.86878 l -1.4538,7.59865 -0.5156,70.08328 -0.5155,70.08327 -1.0597,9 c -1.5708,13.33973 -4.607,28.48999 -8.417,42 l -3.3842,12 -4.9976,12.32999 c -7.4668,18.42188 -17.212,34.98719 -30.1028,51.17001 l -6.7708,8.5 -10.8534,10.52306 c -25.3544,24.58286 -44.38983,36.12597 -70.14721,42.53732 l -9.70609,2.41597 -13,-0.0886 -13,-0.0886 z M 631.5,522.98739 l -10,-0.67718 -5.50448,-2.01677 c -3.02747,-1.10923 -8.40036,-3.47861 -11.93976,-5.26529 l -6.43526,-3.24851 -5.96287,-5.63982 -5.96288,-5.63982 -4.28912,-9 c -2.35902,-4.95 -4.75434,-11.025 -5.32293,-13.5 l -1.03381,-4.5 -0.0244,-12.79216 L 575,447.91568 576.57345,440.20784 578.1469,432.5 583.66598,419 c 20.54789,-50.26134 24.49281,-66.61133 28.35033,-117.5 2.3118,-30.49749 9.55384,-61.99668 17.31068,-75.2927 2.8899,-4.95358 3.03589,-3.37933 0.6905,7.44596 -1.17228,5.41073 -2.78078,14.76112 -3.57445,20.77864 L 625,265.37284 v 23.33012 23.33012 l 1.96301,12.23346 C 630.24622,344.7275 634.02179,358 636.55902,358 H 638 v -1.12696 c 0,-0.61983 2.55088,-7.25733 5.66863,-14.75 l 5.66862,-13.62304 7.12797,-13 c 13.9377,-25.4196 26.62739,-42.64086 45.9376,-62.34222 L 714.5,240.81557 724,233.5726 C 749.26095,214.3132 791.18429,195 807.7299,195 H 810 v 6.8185 6.8185 l -1.61244,5.4315 c -0.88683,2.98732 -2.87616,7.9065 -4.42072,10.9315 l -2.80829,5.5 -6.82927,6.65784 -6.82928,6.65785 -10,4.94915 -10,4.94915 -14.05224,0.57965 -14.05225,0.57965 -5.44775,2.13005 c -2.99627,1.17153 -8.14776,3.88034 -11.44776,6.01958 l -6,3.88953 -4.90493,5.79377 -4.90492,5.79378 -4.80251,10 -4.8025,10 -2.53597,9.52889 c -1.39478,5.24089 -3.25531,14.46589 -4.13451,20.5 l -1.59855,10.97111 0.10997,16 0.10996,16 2.11015,9.5 2.11015,9.5 1.66642,1.76681 1.66642,1.76681 5.45541,-1.88266 c 35.34059,-12.19602 68.01884,-33.40323 100.29134,-65.08609 L 817.17185,312.5 l 9.26345,-12 c 5.0949,-6.6 11.42584,-15.26789 14.06876,-19.26198 2.64292,-3.99409 5.02344,-7.04385 5.29004,-6.77725 0.97492,0.97491 -2.98106,12.65987 -7.69102,22.71735 L 833.2693,307.5 l -6.53123,10 c -8.32916,12.75282 -13.32067,19.14945 -26.53135,34 l -10.6749,12 -11.01591,10.10862 c -6.05875,5.55973 -14.39091,12.96358 -18.51591,16.453 -4.125,3.48941 -11.775,10.35861 -17,15.26489 l -9.5,8.92051 -4.85093,6.62649 c -5.53521,7.56124 -10.2077,16.36 -12.23544,23.04052 l -1.39198,4.58597 -0.0108,8.78155 -0.0108,8.78154 2.01718,5.9879 2.01718,5.9879 -3.88153,5.23056 c -7.43752,10.02243 -11.70532,14.57086 -19.73955,21.03755 l -8.08673,6.50893 -9.0364,4.53835 -9.0364,4.53835 -8.04349,2.05369 -8.04349,2.05368 -5.83338,-0.16771 C 644.12502,523.74004 637,523.35984 631.5,522.98739 Z M 466,521.40738 c -3.025,-0.80354 -9.51893,-3.36143 -14.43095,-5.68418 L 442.6381,511.5 433.84795,504.48294 425.05781,497.46588 417.5289,488.0362 410,478.60652 v -1.32824 c 0,-0.73054 0.9,-3.88891 2,-7.0186 l 2,-5.69036 v -7.38075 -7.38076 l -1.62888,-5.6539 c -2.2582,-7.83832 -6.26266,-15.41607 -12.53439,-23.71917 L 394.5,413.36948 385,404.40991 C 379.775,399.48215 371,391.59459 365.5,386.88199 329.28567,355.85226 305.63791,327.77798 291.47451,299 c -5.36396,-10.89879 -9.90808,-23.19928 -9.2736,-25.10272 l 0.36576,-1.0973 5.88035,8.83615 c 3.23419,4.85989 9.02723,12.89239 12.87343,17.85001 l 6.99309,9.01386 14.09323,14.34203 c 31.39589,31.95016 67.68982,56.26399 101.14454,67.7582 l 8.05132,2.76623 1.55411,-0.59637 1.55412,-0.59637 2.25518,-8.83686 2.25517,-8.83686 0.50097,-16 0.50097,-16 -1.66774,-12 c -2.86803,-20.6365 -6.94695,-34.18875 -14.29644,-47.5 l -3.58882,-6.5 -4.45378,-4.99019 -4.45379,-4.99018 -6.13129,-4.06413 L 399.5,258.39137 393.66102,256.19568 387.82203,254 375.16102,253.991 362.5,253.982 l -11,-5.37231 -11,-5.37231 -6.62371,-6.86851 -6.6237,-6.8685 -3.05121,-6 c -1.67816,-3.3 -3.76,-8.54426 -4.62629,-11.65391 L 318,206.19219 V 200.59609 195 h 3.2701 c 17.45679,0 57.14232,18.25903 83.60532,38.46622 l 9.62458,7.34935 12.09718,12.34221 c 27.57462,28.13317 53.07163,68.81264 63.36242,101.09222 l 1.1955,3.75 h 1.32505 1.32505 l 2.04356,-6.75 c 2.80057,-9.25041 3.95001,-14.67246 6.19924,-29.24256 L 503.97882,309.5 503.98941,288.45846 504,267.41693 502.47764,255.45846 c -0.8373,-6.57715 -2.44946,-16.12196 -3.58259,-21.21068 -1.13313,-5.08872 -1.86911,-9.81372 -1.6355,-10.5 l 0.42474,-1.24778 2.20349,4.29961 c 7.63807,14.90396 14.67921,44.70937 16.58393,70.20039 4.09868,54.85302 8.36113,72.93329 28.52593,121 l 5.24397,12.5 1.86606,9 1.86606,9 -0.022,11.5 -0.022,11.5 -1.30585,6 -1.30585,6 -3.75418,7.5 -3.75417,7.5 -6.15485,6.33183 -6.15484,6.33183 -7.5,3.80242 -7.5,3.80243 -7.10781,2.11574 L 502.28437,523 486.89219,522.93419 471.5,522.86838 Z m 1297,-39.45566 c -19.3389,-2.37312 -37.9458,-7.54981 -53.7397,-14.95108 l -8.6485,-4.05284 -10.0559,-6.65338 -10.0559,-6.65339 -12.0645,-12.07052 -12.0645,-12.07051 -6.1289,-9.23088 c -10.9646,-16.51416 -18.1809,-34.28672 -22.2911,-54.89927 l -2.1675,-10.86985 -0.4969,-18 -0.4969,-18 1.603,-12 1.6031,-12 2.5342,-9.90439 2.5343,-9.90438 3.8301,-9.30204 c 4.8586,-11.79995 10.7164,-22.03881 18.677,-32.64579 l 6.2728,-8.35795 9.3737,-8.94272 9.3737,-8.94273 7.376,-4.92872 c 4.0568,-2.7108 11.9112,-7.28275 17.4542,-10.15989 l 10.0782,-5.23116 9,-2.98006 c 21.6672,-7.1744 46.5834,-9.70987 70.2894,-7.15268 l 9.7106,1.04749 10.2739,2.43899 10.274,2.43899 8.726,3.60383 c 11.1603,4.60915 22.3593,11.26939 32.2355,19.17103 l 7.8092,6.24781 6.2657,7.25219 c 18.1076,20.95841 29.7833,47.74562 34.3413,78.78864 l 1.5471,10.53647 0.1278,12.66202 0.1278,12.66202 -2.2039,4.55272 -2.204,4.55273 -3.6602,3.02751 -3.6602,3.02752 -4.9315,1.47127 L 1894.637,347 h -108.8638 -108.8638 l 0.673,3.75 c 7.2945,40.64571 40.9576,73.35273 84.3465,81.9511 l 8.5711,1.69852 14,-0.0572 14,-0.0572 7.2253,-1.62368 c 15.4144,-3.46394 30.3594,-9.78361 43.486,-18.3885 l 7.7113,-5.05502 5.1491,-1.23524 5.149,-1.23525 4.8213,0.57101 4.8212,0.571 3.8184,1.97048 3.8184,1.97048 3.6398,3.83474 c 4.2257,4.45198 6.4188,8.46501 7.3559,13.46006 l 0.6671,3.55621 -1.1443,4.24987 -1.1444,4.24986 -4.0315,4.37366 -4.0315,4.37366 -8.0637,5.17264 c -4.435,2.84496 -12.6354,7.35653 -18.2232,10.02572 l -10.1594,4.85307 -11.9871,3.93622 -11.9872,3.93622 -10.9452,2.1714 -10.9453,2.17139 -16.5,0.33841 -16.5,0.3384 z M 1864.3904,298.75 c -0.3077,-1.7875 -1.4105,-6.77978 -2.4506,-11.09396 l -1.891,-7.84396 -3.8491,-8.72247 c -6.6508,-15.07137 -15.6361,-26.73782 -27.4091,-35.58776 l -6.0632,-4.55781 -7.1542,-3.441 -7.1541,-3.44101 -8.4595,-1.96371 -8.4596,-1.96372 -8.5,-0.6549 -8.5,-0.6549 -10.3137,1.14479 c -5.6725,0.62964 -13.7725,2.01312 -18,3.0744 l -7.6863,1.92962 -10,4.92999 -10,4.93 -6.9738,5.85921 -6.9738,5.85922 -5.3172,6.47398 -5.3171,6.47399 -5.9232,12 -5.9232,12 -2.0358,7.4799 c -1.1198,4.11395 -2.0359,8.27645 -2.0359,9.25 V 302 h 93.475 93.475 z M 2363,482.33447 c -1.925,-0.18999 -7.775,-1.06622 -13,-1.94716 l -9.5,-1.60171 -11,-3.5165 -11,-3.51649 -9,-4.48334 c -29.3371,-14.61426 -53.8371,-39.10622 -68.7106,-68.6881 l -4.0351,-8.02541 -3.7617,-11.52788 -3.7618,-11.52788 -1.8654,-10 -1.8654,-10 0.031,-22 0.031,-22 2.2503,-11.2554 c 9.0668,-45.34909 33.3366,-80.32454 71.3075,-102.76223 l 9.3159,-5.50495 8.0323,-3.10387 c 4.4177,-1.70714 12.1145,-4.14208 17.104,-5.41098 l 9.0718,-2.30711 10.4282,-1.2151 10.4282,-1.2151 11.5521,0.57811 11.5521,0.57811 10.1981,2.07822 10.198,2.07823 8.4388,3.05353 c 10.6728,3.86187 22.932,10.04962 32.5609,16.43497 l 7.5,4.97357 10.75,10.38071 10.75,10.38072 v -76.5815 -76.581488 l 1.0864,-5.065495 1.0863,-5.065495 3.1637,-4.712491 3.1636,-4.712492 6.5,-3.370043 6.5,-3.370044 8.5,0.41969 8.5,0.419689 4.0529,2.098894 c 4.9822,2.580159 9.7678,7.366117 12.1507,12.151767 L 2533.5,60.5 l 0.276,140.5 0.276,140.5 -1.5627,10.76475 -1.5627,10.76474 -2.529,8.72721 c -1.391,4.79997 -4.2908,12.94357 -6.4441,18.09691 l -3.915,9.3697 -5.1768,8.63835 c -2.8472,4.75108 -7.6927,12.01334 -10.7678,16.13834 l -5.591,7.5 -8.5986,8.5 c -9.5588,9.44915 -16.7261,14.97098 -29.4636,22.6993 l -8.5693,5.1993 -10.1857,3.97367 c -12.6844,4.94847 -24.0758,7.87851 -37.6637,9.6877 l -10.522,1.40098 -12.5,-0.14051 c -6.875,-0.0773 -14.075,-0.29597 -16,-0.48597 z m 30.5,-50.82586 c 13.4392,-1.26166 27.7183,-6.31845 39.6656,-14.04712 l 7.2361,-4.68102 6.3785,-6.12489 c 11.8501,-11.37913 20.5798,-25.07582 26.1535,-41.0344 l 3.101,-8.87883 1.4826,-8.50216 1.4827,-8.50217 V 326.5 313.26198 l -1.4678,-8.38099 c -2.5656,-14.64989 -8.2165,-28.54215 -16.8324,-41.38099 l -4.0264,-6 -7.5867,-7.51964 -7.5867,-7.51964 -6.5,-4.26955 c -12.36,-8.11872 -24.7388,-13.03577 -38.3428,-15.23033 l -7.5639,-1.22019 -13.7967,0.5269 -13.7966,0.52691 -6,1.63381 c -3.3,0.89859 -8.959,2.75418 -12.5755,4.12353 l -6.5756,2.48972 -8.3888,5.16254 -8.3889,5.16255 -8.1975,7.86995 -8.1975,7.86995 -5.2891,7.65084 -5.289,7.65084 -3.6777,8.54591 -3.6776,8.5459 -2.3569,9 -2.3568,9 0.047,19.5 0.047,19.5 2.62,9.70581 2.62,9.70581 3.9765,8.4857 c 2.1871,4.66714 5.7008,11.09952 7.8082,14.29419 l 3.8317,5.80849 8.4514,8.80008 8.4515,8.80007 6.8743,4.57004 6.8743,4.57004 7.6849,3.22518 c 9.5971,4.02775 20.1275,6.62196 30.5997,7.5384 7.9481,0.69555 11.1278,0.62734 23.0851,-0.4952 z m -1117.5065,48.55705 c -4.2233,-1.28469 -8.3961,-3.74264 -11.4129,-6.72281 l -2.8778,-2.84285 -2.3587,-5.10585 -2.3587,-5.10586 0.2573,-199.89414 L 1257.5,60.5 l 1.7964,-3.607578 c 2.3874,-4.794562 7.1765,-9.578837 12.1507,-12.138317 l 4.0529,-2.085444 7.6266,-0.455674 7.6267,-0.455674 4.905,1.629197 4.9051,1.629198 3.6547,3.012555 3.6548,3.012556 2.8135,5.729591 2.8136,5.72959 0.5,72.30158 0.5,72.30158 5.5,-4.71813 c 17.5553,-15.05967 40.6104,-25.74989 64.381,-29.85232 L 1393.262,171 h 16.1928 16.1928 l 9.4262,1.61222 c 5.1844,0.88672 13.147,2.68714 17.6945,4.00093 l 8.2684,2.38872 9.4532,4.41751 c 5.1992,2.42963 13.2011,6.86052 17.7819,9.84642 l 8.3287,5.42892 6.7646,6.32796 6.7646,6.32796 6.4587,8.57468 6.4587,8.57468 5.3608,10.5 5.3607,10.5 2.5317,7.61358 c 1.3924,4.18747 3.4399,11.83747 4.5499,17 l 2.0182,9.38642 1.0624,11.5 1.0624,11.5 v 75.0685 75.0685 l -1.5099,5.08434 -1.5099,5.08435 -4.4607,4.96135 -4.4606,4.96135 -5.2317,2.25059 -5.2316,2.2506 -8.0478,-0.43894 -8.0478,-0.43893 -3.5,-1.78781 c -4.8158,-2.4599 -9.7585,-7.29299 -12.3376,-12.0639 l -2.1624,-4 -0.6288,-82.5 -0.6288,-82.5 -1.0252,-5 c -0.5638,-2.75 -1.7695,-7.925 -2.6793,-11.5 l -1.6542,-6.5 -3.9643,-8.08263 -3.9643,-8.08264 -5.5379,-6.71385 -5.5379,-6.71385 -6.1896,-4.56224 c -7.4175,-5.4672 -16.9332,-10.38528 -25.7316,-13.29905 l -6.4581,-2.13875 -10,-1.55314 -10,-1.55314 -11,0.58097 -11,0.58097 -8.5,2.05305 -8.5,2.05305 -9.17,4.44902 -9.1701,4.44902 -7.3299,5.91508 -7.33,5.91509 -5.1392,6.85152 c -5.8042,7.73819 -8.3203,12.40139 -10.9807,20.35152 l -1.8405,5.5 -0.5198,90 -0.5198,90 -2.8136,5.72959 -2.8135,5.72959 -3.6305,2.99251 -3.6304,2.99251 -4.4841,1.5279 -4.4842,1.5279 -6.5718,-0.086 c -3.6146,-0.0473 -7.6998,-0.42905 -9.0784,-0.84839 z m 733.3329,-0.0477 c -7.8024,-1.65929 -13.0626,-5.6963 -16.9622,-13.01795 l -1.8642,-3.5 -0.2863,-134 -0.2863,-134 1.1797,-4.29787 1.1796,-4.29787 2.926,-4.0392 2.926,-4.0392 5.6806,-2.60365 5.6807,-2.60365 8,-0.02 8,-0.02 3.8807,1.33143 3.8807,1.33143 4.0295,3.62931 4.0295,3.62931 1.9916,4.48729 1.9915,4.48729 0.4841,9.25565 0.4842,9.25565 6.8294,-6.44254 c 3.7562,-3.54339 10.1075,-8.77275 14.1141,-11.62079 l 7.2847,-5.17827 11,-5.31873 11,-5.31873 7.5,-2.08791 c 4.125,-1.14836 11.775,-2.74474 17,-3.54752 l 9.5,-1.4596 10,-0.003 10,-0.003 9,1.09833 9,1.09833 7.5784,2.38816 7.5784,2.38815 5.9216,3.83366 5.9216,3.83366 3.1441,3.59127 3.1442,3.59127 1.2288,3.72344 1.2289,3.72343 -0.5678,4.79394 -0.5678,4.79395 -1.9963,3.91307 -1.9963,3.91307 -3.496,3.06952 -3.496,3.06952 -5.5234,1.23609 -5.5234,1.23609 -13.2895,-2.40029 -13.2895,-2.4005 -19,0.0543 -19,0.0543 -9.0594,2.10979 c -4.9827,1.16038 -12.7265,3.52397 -17.2086,5.25243 l -8.1491,3.14265 -7.2915,4.81486 c -8.5336,5.63517 -14.7055,11.55802 -19.4766,18.69089 l -3.4242,5.11916 -2.6953,7.38084 -2.6953,7.38084 -0.5,93.5 -0.5,93.5 -1.3059,3 c -0.7182,1.65 -2.4636,4.68273 -3.8786,6.73939 l -2.5728,3.7394 -5.2254,2.55655 -5.2254,2.55655 -6.896,0.40681 -6.8959,0.40682 z M 901,459.7319 c 0,-0.29936 2.1375,-2.08272 4.75,-3.96303 18.97967,-13.6603 33.07553,-31.45701 47.07279,-59.43167 L 959.74631,382.5 963.79669,370 c 5.38647,-16.62336 7.64007,-25.90116 10.08829,-41.53241 l 2.04118,-13.03241 0.10221,-22.96759 0.10221,-22.96759 -1.55663,-13.09386 C 969.76189,215.9285 956.36076,172.71211 935.9964,132 920.62343,101.26661 910,56.929298 910,23.503022 V 17 h 0.79413 c 5.37584,0 44.12527,14.942499 66.93804,25.812554 L 995.96434,51.5 l 0.0178,1.738842 c 0.01,0.956364 -0.85348,5.006364 -1.91841,9 L 992.12752,69.5 l -0.67101,13.500586 -0.67101,13.500585 1.66226,8.999419 c 0.91424,4.94967 3.86988,16.42441 6.56808,25.49941 13.22246,44.47167 19.44716,74.12274 22.46266,107 l 1.5134,16.5 v 19 19 l -1.0185,11 c -3.6875,39.82454 -15.8276,75.56974 -35.49109,104.5 l -5.77734,8.5 -9.60568,9.83805 -9.60569,9.83805 -7.00794,4.77908 c -3.85437,2.6285 -10.70254,6.6367 -15.21816,8.90711 l -8.21022,4.12801 -8.55623,2.4795 -8.55622,2.4795 -6.47561,0.66344 C 903.91403,459.97764 901,460.03126 901,459.7319 Z m -688,-1.69623 c -12.58648,-2.64073 -26.13517,-8.6531 -38.49206,-17.08123 L 167.5,436.17461 156.86905,425.3373 146.23809,414.5 l -5.97539,-9 C 121.28168,376.91121 110.05934,342.81299 106.05955,301.57632 L 105,290.65264 v -17.45271 -17.45271 l 1.54481,-16.62361 1.54481,-16.62361 3.05862,-17.99363 c 3.64446,-21.44011 8.69713,-42.36426 16.80902,-69.60953 l 5.97254,-20.05989 1.68115,-9.14789 1.68115,-9.14788 L 136.66447,82.02059 136.03685,67.5 134.02606,61 c -1.10593,-3.575 -2.01422,-7.215504 -2.01842,-8.090008 L 132,51.319984 151.25,42.2057 c 24.21031,-11.462838 59.67818,-25.101615 65.5,-25.187302 L 218,17 v 7.543195 C 218,57.977778 207.9281,100.33106 192.85501,130.28021 171.95061,171.81576 158.48956,215.43025 153.43595,258 l -1.72135,14.5 0.62017,24 0.62016,24 2.08498,11.96646 c 2.40204,13.7862 4.64263,22.58974 9.67992,38.03354 l 3.58785,11 7.24655,14.64754 7.24654,14.64754 5.27714,7.85246 c 9.97446,14.84214 21.52333,27.22836 33.42209,35.84535 2.2,1.59322 4.4275,3.2591 4.95,3.70194 L 227.4,459 l -5.45,-0.115 c -2.9975,-0.0632 -7.025,-0.44545 -8.95,-0.84933 z m 649,-60.56063 c 0,-0.28873 1.6312,-3.76411 3.6249,-7.72306 1.99369,-3.95894 5.19483,-11.26021 7.11364,-16.22503 l 3.48874,-9.02695 2.93826,-12 2.93827,-12 1.4401,-11.5 1.44011,-11.5 -0.0119,-16 -0.0119,-16 -1.41306,-13 -1.41306,-13 -2.96397,-13 c -5.91108,-25.92608 -12.39548,-44.47845 -24.15451,-69.10789 L 848.11586,162.9404 840.10103,151.64241 832.08619,140.34442 799.28552,107.92221 766.48485,75.5 l -4.56258,-6 c -2.50942,-3.3 -6.62223,-9.825 -9.13958,-14.5 l -4.577,-8.5 L 745.19165,36.3721 742.1776,26.244199 741.53984,16.3721 740.90207,6.5 741.70104,5.3914503 742.5,4.2829006 754,2.609414 l 11.5,-1.67348667 26,-0.59713553 26,-0.59713553 9.46301,1.17551361 c 11.44063,1.42117762 9.82251,-1.08780331 11.06352,17.15465112 L 839.07609,33.5 l 2.01415,10 c 2.5904,12.861005 5.07842,20.428838 10.60294,32.250973 l 4.46446,9.553684 7.63382,10.080206 C 886.7004,125.63534 901.31799,158.40804 911.34496,202 l 3.56529,15.5 2.04487,14.95663 L 919,247.41326 v 21.79995 21.79995 l -1.50792,10.03956 c -5.20418,34.64886 -15.07573,59.11797 -31.40804,77.85272 l -5.58404,6.40544 -8.4025,6.34456 C 864.36034,397.49762 862,398.85798 862,397.47504 Z m -606.63296,-6.79164 -8.13295,-6.29365 -5.44494,-6.44488 C 231.74081,366.05122 225.2902,354.49649 219.64563,338.28007 L 216.13418,328.19192 213.31709,315.34596 210.5,302.5 v -34 -34 l 2.30667,-12.75717 c 9.36835,-51.81213 26.17932,-93.05244 51.63142,-126.661079 l 7.35842,-9.716552 4.46015,-8.9326 c 5.15013,-10.314467 7.86283,-18.205043 10.70546,-31.139566 l 2.02343,-9.206968 1.18212,-17.003159 1.18213,-17.0031588 1.5751,-0.7107523 1.5751,-0.71075221 31.14683,-0.43263679 31.14683,-0.43263678 12.35317,1.63349768 c 6.79424,0.8984237 13.55308,1.8725037 15.01963,2.1646223 l 2.66646,0.5311245 0.61555,1.6040946 0.61555,1.6040945 L 386.96851,17.415201 385.873,27.5 l -2.4294,8.432261 -2.42939,8.43226 -4.66457,9.06774 -4.66457,9.067739 -4.52952,6 -4.52951,6 -32.81794,32.34888 -32.81794,32.34887 -7.66743,10.64519 -7.66743,10.64519 -6.94502,14.00594 C 262.37007,199.38042 254.27289,222.47153 248.58387,249 l -2.46617,11.5 -1.55885,14.20681 L 243,288.91361 v 12.32305 12.32306 l 1.50749,12.47014 1.5075,12.47014 3.06996,12.85021 3.06996,12.85021 3.52636,9.13091 c 1.9395,5.02199 5.05465,12.16567 6.92255,15.87482 5.13001,10.18686 4.25025,10.36645 -7.23678,1.47725 z M 691.5,147.37465 c -34.20719,-5.31399 -69.75069,-24.46323 -96.89718,-52.203862 l -5.89718,-6.026249 5.88347,-6.82227 C 609.40579,65.14137 648.0754,35 655.3008,35 h 1.23944 l 5.82497,11.75 c 13.86509,27.968388 31.50936,51.765577 54.69953,73.77439 l 11.56474,10.97561 7.65728,5.5 7.65727,5.5 0.028,1.11943 0.028,1.11943 -13.36281,2.13057 L 717.27438,149 708.88719,148.88638 700.5,148.77277 Z m -296.41677,-1.24175 -9.41677,-1.6329 -0.37475,-1.12456 -0.37475,-1.12456 7.28742,-5.37544 c 28.21403,-20.81159 56.3935,-55.160394 73.89391,-90.07151 L 472.01542,35 h 1.8422 1.84221 l 9.29076,5.836518 c 19.25288,12.0948 36.80383,26.69597 48.64188,40.466657 l 6.13247,7.133639 -5.63247,6.190732 C 510.76274,120.31356 472.44095,141.33649 439.5,146.54192 l -9,1.42221 -13,-0.0992 -13,-0.0992 z"
         id="path6" />
    </g>
    <path
       style="fill:#000000"
       id="path2"
       d="" />
    <path
       style="fill:#000000"
       id="path1"
       d="" />
  </g>
</svg>
